<?xml version="1.0" encoding="UTF-8" standalone="no"?>
<!-- Created with Inkscape (http://www.inkscape.org/) -->

<svg
   width="99.845741mm"
   height="22.75425mm"
   viewBox="0 0 99.845741 22.75425"
   version="1.1"
   id="svg1"
   inkscape:export-filename="bitmap.png"
   inkscape:export-xdpi="96"
   inkscape:export-ydpi="96"
   inkscape:version="1.3.2 (091e20e, 2023-11-25)"
   sodipodi:docname="logo.svg"
   xmlns:inkscape="http://www.inkscape.org/namespaces/inkscape"
   xmlns:sodipodi="http://sodipodi.sourceforge.net/DTD/sodipodi-0.dtd"
   xmlns:xlink="http://www.w3.org/1999/xlink"
   xmlns="http://www.w3.org/2000/svg"
   xmlns:svg="http://www.w3.org/2000/svg">
  <sodipodi:namedview
     id="namedview1"
     pagecolor="#ffffff"
     bordercolor="#000000"
     borderopacity="0.25"
     inkscape:showpageshadow="2"
     inkscape:pageopacity="0.0"
     inkscape:pagecheckerboard="0"
     inkscape:deskcolor="#d1d1d1"
     inkscape:document-units="mm"
     inkscape:zoom="1.404555"
     inkscape:cx="184.40004"
     inkscape:cy="102.87956"
     inkscape:window-width="1392"
     inkscape:window-height="1212"
     inkscape:window-x="676"
     inkscape:window-y="65"
     inkscape:window-maximized="0"
     inkscape:current-layer="layer1" />
  <defs
     id="defs1">
    <linearGradient
       id="linearGradient12"
       inkscape:collect="always">
      <stop
         style="stop-color:#ffde39;stop-opacity:0.82285714;"
         offset="0"
         id="stop11" />
      <stop
         style="stop-color:#ff0000;stop-opacity:0;"
         offset="1"
         id="stop12" />
    </linearGradient>
    <linearGradient
       id="linearGradient10"
       inkscape:collect="always">
      <stop
         style="stop-color:#ff00cf;stop-opacity:1;"
         offset="0"
         id="stop9" />
      <stop
         style="stop-color:#00ffc2;stop-opacity:0;"
         offset="1"
         id="stop10" />
    </linearGradient>
    <linearGradient
       id="linearGradient6"
       inkscape:collect="always">
      <stop
         style="stop-color:#00e4fd;stop-opacity:0.83928573;"
         offset="0"
         id="stop6" />
      <stop
         style="stop-color:#8a00ff;stop-opacity:0.52571428;"
         offset="1"
         id="stop7" />
    </linearGradient>
    <linearGradient
       id="linearGradient3"
       inkscape:collect="always">
      <stop
         style="stop-color:#00ca00;stop-opacity:1;"
         offset="0"
         id="stop3" />
      <stop
         style="stop-color:#008ca6;stop-opacity:0;"
         offset="1"
         id="stop4" />
    </linearGradient>
    <rect
       x="174.68607"
       y="380.64307"
       width="461.51627"
       height="164.98128"
       id="rect1" />
    <linearGradient
       inkscape:collect="always"
       xlink:href="#linearGradient3"
       id="linearGradient4"
       x1="70.184441"
       y1="81.881844"
       x2="102.42363"
       y2="104.42075"
       gradientUnits="userSpaceOnUse" />
    <linearGradient
       inkscape:collect="always"
       xlink:href="#linearGradient6"
       id="linearGradient7"
       x1="113.97557"
       y1="79.32209"
       x2="127.66482"
       y2="102.37905"
       gradientUnits="userSpaceOnUse" />
    <linearGradient
       inkscape:collect="always"
       xlink:href="#linearGradient12"
       id="linearGradient11"
       gradientUnits="userSpaceOnUse"
       x1="177.66478"
       y1="89.977013"
       x2="137.38802"
       y2="125.4688"
       gradientTransform="translate(0.14979917,0.32820678)" />
    <linearGradient
       inkscape:collect="always"
       xlink:href="#linearGradient10"
       id="linearGradient18"
       gradientUnits="userSpaceOnUse"
       gradientTransform="matrix(0.93196964,0,0,0.53560987,8.9025462,44.695396)"
       x1="146.73619"
       y1="127.51962"
       x2="131.52373"
       y2="88.772636" />
    <clipPath
       clipPathUnits="userSpaceOnUse"
       id="clipPath18">
      <path
         id="path18"
         style="font-weight:bold;font-size:30.339px;font-family:Quicksand;-inkscape-font-specification:'Quicksand Bold';stroke-width:0.264583"
         d="m 79.397783,88.24655 c -0.525876,0 -0.960989,0.182152 -1.30483,0.54622 -0.343842,0.343842 -0.515731,0.778438 -0.515731,1.304313 v 18.749757 c 0,0.52588 0.171889,0.97074 0.515731,1.33481 0.343841,0.34383 0.778954,0.51573 1.30483,0.51573 0.525875,0 0.960471,-0.1719 1.304313,-0.51573 0.343842,-0.36407 0.515731,-0.80893 0.515731,-1.33481 v -7.76696 c 0,-0.66746 0.131353,-1.264201 0.394291,-1.790076 0.283164,-0.546102 0.69775,-0.980698 1.243852,-1.304314 0.546101,-0.323615 1.203902,-0.485758 1.972489,-0.485758 0.788813,0 1.395298,0.162143 1.820044,0.485758 0.424745,0.323616 0.718242,0.758212 0.88005,1.304314 0.161807,0.525875 0.242362,1.122616 0.242362,1.790076 v 7.76696 c 0,0.52588 0.171889,0.97074 0.515731,1.33481 0.343841,0.34383 0.778954,0.51573 1.30483,0.51573 0.525875,0 0.960471,-0.1719 1.304313,-0.51573 0.343842,-0.36407 0.516247,-0.80893 0.516247,-1.33481 v -7.76696 c 0,-1.274244 -0.141616,-2.427183 -0.42478,-3.458708 -0.283164,-1.051751 -0.809094,-1.891188 -1.577681,-2.518193 -0.748362,-0.627005 -1.851021,-0.940511 -3.307292,-0.940511 -0.667457,0 -1.284206,0.111344 -1.850533,0.33383 -0.566327,0.20226 -1.081995,0.47523 -1.547192,0.819071 -0.465198,0.343842 -0.859775,0.718409 -1.183391,1.122929 -0.113657,0.134968 -0.207147,0.264313 -0.30334,0.394291 v -6.735506 c 0,-0.525875 -0.171889,-0.960471 -0.515731,-1.304313 -0.343842,-0.364068 -0.778438,-0.54622 -1.304313,-0.54622 z m 36.012267,0 c -0.52587,0 -0.97072,0.182152 -1.3348,0.54622 -0.34384,0.343842 -0.51573,0.778438 -0.51573,1.304313 v 18.749757 c 0,0.52588 0.17189,0.97074 0.51573,1.33481 0.34385,0.34383 0.76818,0.51573 1.27383,0.51573 0.52588,0 0.96099,-0.1719 1.30483,-0.51573 0.36406,-0.36407 0.54622,-0.80893 0.54622,-1.33481 V 90.097083 c 0,-0.525875 -0.17189,-0.960471 -0.51573,-1.304313 -0.32362,-0.364068 -0.74847,-0.54622 -1.27435,-0.54622 z m 8.19124,0 c -0.52588,0 -0.97074,0.182152 -1.33481,0.54622 -0.34384,0.343842 -0.51573,0.778438 -0.51573,1.304313 v 18.749757 c 0,0.52588 0.17189,0.97074 0.51573,1.33481 0.34385,0.34383 0.7687,0.51573 1.27434,0.51573 0.52588,0 0.96099,-0.1719 1.30483,-0.51573 0.36407,-0.36407 0.54571,-0.80893 0.54571,-1.33481 V 90.097083 c 0,-0.525875 -0.17189,-0.960471 -0.51573,-1.304313 -0.32362,-0.364068 -0.74847,-0.54622 -1.27434,-0.54622 z m 51.91052,0.63717 c -0.64722,0 -1.13262,0.111344 -1.45624,0.33383 -0.30339,0.20226 -0.45527,0.59632 -0.45527,1.182874 v 0.576709 c 0,0.566327 0.14162,0.960904 0.42478,1.18339 0.28317,0.222486 0.76856,0.333313 1.45624,0.333313 0.68768,0 1.18334,-0.101081 1.48673,-0.303341 0.30339,-0.222485 0.45476,-0.626809 0.45476,-1.213362 v -0.576709 c 0,-0.566328 -0.14162,-0.960388 -0.42478,-1.182874 -0.28317,-0.222486 -0.7783,-0.33383 -1.48622,-0.33383 z m -73.1175,5.278748 c -1.33492,0 -2.598684,0.343778 -3.792015,1.031462 -1.193333,0.687683 -2.164122,1.678999 -2.912483,2.973461 -0.728136,1.274237 -1.09244,2.821759 -1.09244,4.642099 0,1.55739 0.333515,2.95252 1.000972,4.1863 0.687684,1.23379 1.65899,2.21484 2.913001,2.94298 1.274235,0.7079 2.770955,1.06195 4.490165,1.06195 1.0113,0 1.99184,-0.16163 2.94246,-0.48525 0.95062,-0.34384 1.68897,-0.73842 2.21485,-1.18339 0.56632,-0.44497 0.84956,-0.94062 0.84956,-1.48673 0,-0.40452 -0.15188,-0.75804 -0.45527,-1.06143 -0.28316,-0.30339 -0.64695,-0.45527 -1.09192,-0.45527 -0.32362,0 -0.66739,0.0908 -1.03147,0.27285 -0.22248,0.12136 -0.47544,0.27324 -0.75861,0.45527 -0.26294,0.16181 -0.61697,0.30342 -1.06195,0.42478 -0.44496,0.12135 -1.0417,0.1819 -1.79007,0.1819 -0.80904,0 -1.57767,-0.1919 -2.3058,-0.57619 -0.70791,-0.40452 -1.294385,-0.98125 -1.759583,-1.72961 -0.259515,-0.44826 -0.433924,-0.95837 -0.542086,-1.5167 H 108.2198 c 0.48542,0 0.90975,-0.15188 1.27382,-0.45527 0.36409,-0.30339 0.55651,-0.69797 0.57671,-1.18339 0,-1.09221 -0.21243,-2.12354 -0.63717,-3.094387 -0.40452,-0.970847 -0.96072,-1.820547 -1.66863,-2.548682 -0.70791,-0.748361 -1.52682,-1.334837 -2.45722,-1.759583 -0.91016,-0.424745 -1.88147,-0.63717 -2.913,-0.63717 z m 59.03981,0 c -1.35515,0 -2.58864,0.364304 -3.70107,1.09244 -1.11243,0.707909 -2.00267,1.698708 -2.67012,2.972945 -0.64723,1.254011 -0.97048,2.710707 -0.97048,4.369247 0,1.6383 0.32325,3.09449 0.97048,4.36872 0.66745,1.25401 1.56795,2.24481 2.70061,2.97295 1.13265,0.7079 2.39643,1.06195 3.79202,1.06195 0.76858,0 1.47667,-0.12109 2.1239,-0.36381 0.66746,-0.26293 1.24367,-0.57643 1.72909,-0.94051 0.36856,-0.27642 0.66013,-0.55298 0.91209,-0.8294 0.005,0.51678 0.17491,0.95541 0.51418,1.31465 0.34384,0.34383 0.77844,0.51573 1.30432,0.51573 0.52587,0 0.96099,-0.1719 1.30483,-0.51573 0.34384,-0.36407 0.51573,-0.80893 0.51573,-1.33481 V 96.013518 c 0,-0.546102 -0.17189,-0.991478 -0.51573,-1.335319 -0.34384,-0.343842 -0.77896,-0.515731 -1.30483,-0.515731 -0.52588,0 -0.96048,0.182152 -1.30432,0.54622 -0.34384,0.343842 -0.51573,0.778954 -0.51573,1.30483 v 0.06201 c -0.18332,-0.173913 -0.37725,-0.346953 -0.6072,-0.517281 -0.52588,-0.404519 -1.15289,-0.738034 -1.88102,-1.000972 -0.72814,-0.262938 -1.52704,-0.394808 -2.39675,-0.394807 z m -30.12633,0.303341 c -0.52587,0 -0.96099,0.182152 -1.30483,0.54622 -0.34384,0.343841 -0.51573,0.778954 -0.51573,1.304829 v 7.705992 c 0,2.14395 0.58647,3.84283 1.75958,5.09684 1.19334,1.25402 2.91274,1.88103 5.15783,1.88103 2.24508,0 3.96449,-0.62701 5.15782,-1.88103 1.19334,-1.25401 1.78956,-2.95289 1.78956,-5.09684 v -7.705992 c 0,-0.525875 -0.17189,-0.960988 -0.51573,-1.304829 -0.34384,-0.364068 -0.77844,-0.54622 -1.30432,-0.54622 -0.52587,0 -0.96099,0.182152 -1.30483,0.54622 -0.34383,0.343841 -0.51573,0.778954 -0.51573,1.304829 v 7.705992 c 0,1.23378 -0.27296,2.15429 -0.81907,2.76107 -0.5461,0.58655 -1.37528,0.87953 -2.4877,0.87953 -1.09221,0 -1.91163,-0.29298 -2.45773,-0.87953 -0.54611,-0.60678 -0.81907,-1.52729 -0.81907,-2.76107 v -7.705992 c 0,-0.525875 -0.17189,-0.960988 -0.51573,-1.304829 -0.34384,-0.364068 -0.77844,-0.54622 -1.30432,-0.54622 z m 44.20402,0 c -0.52587,0 -0.96099,0.182152 -1.30483,0.54622 -0.34384,0.343841 -0.51573,0.778954 -0.51573,1.304829 v 12.529982 c 0,0.52588 0.17189,0.97074 0.51573,1.33481 0.34384,0.34383 0.77896,0.51573 1.30483,0.51573 0.52588,0 0.96048,-0.1719 1.30432,-0.51573 0.34384,-0.36407 0.51573,-0.80893 0.51573,-1.33481 V 96.316858 c 0,-0.525875 -0.17189,-0.960988 -0.51573,-1.304829 -0.34384,-0.364068 -0.77844,-0.54622 -1.30432,-0.54622 z m -73.1175,3.033923 c 0.62701,0 1.214,0.141617 1.7601,0.42478 0.56633,0.262938 1.0312,0.627242 1.39526,1.09244 0.38428,0.465198 0.59671,0.991128 0.63718,1.577678 v 0.21239 h -7.945256 c 0.049,-0.24879 0.105434,-0.48622 0.178283,-0.69814 0.222486,-0.647237 0.526246,-1.162904 0.910539,-1.547197 0.384294,-0.384294 0.839414,-0.657264 1.365294,-0.819072 0.52588,-0.161808 1.09182,-0.242879 1.6986,-0.242879 z m 59.61652,0 c 0.88994,0 1.66831,0.222688 2.33577,0.667659 0.66746,0.444972 1.18365,1.051974 1.54771,1.820561 0.38429,0.768588 0.57619,1.638298 0.57619,2.609148 0,0.95061 -0.1919,1.81006 -0.57619,2.57865 -0.36406,0.76859 -0.88025,1.37507 -1.54771,1.82004 -0.66746,0.44498 -1.44583,0.66766 -2.33577,0.66766 -0.86972,0 -1.63835,-0.22268 -2.3058,-0.66766 -0.66746,-0.44497 -1.19339,-1.05145 -1.57769,-1.82004 -0.36407,-0.76859 -0.54622,-1.62804 -0.54622,-2.57865 0,-0.97085 0.18215,-1.84056 0.54622,-2.609148 0.3843,-0.768587 0.91023,-1.375589 1.57769,-1.820561 0.66745,-0.444971 1.43608,-0.667659 2.3058,-0.667659 z m -13.1067,9.010818 c -0.58655,0 -1.04167,0.16163 -1.36529,0.48524 -0.30339,0.3034 -0.45475,0.74877 -0.45475,1.33532 v 0.51573 c 0,0.58656 0.15136,1.04167 0.45475,1.36529 0.32362,0.30339 0.77874,0.45476 1.36529,0.45476 h 0.39481 c 0.58656,0 1.03142,-0.15137 1.3348,-0.45476 0.32362,-0.32362 0.48525,-0.77873 0.48525,-1.36529 v -0.51573 c 0,-0.58655 -0.16163,-1.03192 -0.48525,-1.33532 -0.30338,-0.32361 -0.74824,-0.48524 -1.3348,-0.48524 z" />
    </clipPath>
  </defs>
  <g
     inkscape:label="Layer 1"
     inkscape:groupmode="layer"
     id="layer1"
     style="display:inline"
     transform="translate(-77.577222,-88.24655)">
    <g
       id="g13"
       clip-path="url(#clipPath18)"
       style="display:inline">
      <path
         id="rect2-9"
         style="fill:#ffffff;stroke-width:0.264583"
         d="M 64.540916,76.348152 H 191.78587 V 129.98504 H 64.540916 Z" />
      <path
         id="rect2-9-8"
         style="display:inline;fill:url(#linearGradient18);stroke-width:0.186934"
         d="m 69.26033,85.64872 h 118.58842 v 28.72844 H 69.26033 Z" />
      <path
         id="rect2-9-6"
         style="display:inline;fill:url(#linearGradient7);stroke-width:0.264583"
         d="M 64.558334,76.466232 H 191.80328 V 130.10312 H 64.558334 Z" />
      <path
         id="rect2-9-6-7"
         style="display:inline;fill:url(#linearGradient11);stroke-width:0.264583"
         d="M 64.708138,76.794441 H 191.95309 V 130.43133 H 64.708138 Z" />
      <path
         id="rect2"
         style="display:inline;fill:url(#linearGradient4);stroke-width:0.264583"
         inkscape:label="rect2"
         d="M 64.763687,76.461098 H 192.00864 V 130.09798 H 64.763687 Z" />
    </g>
  </g>
</svg>
